<?xml version="1.0" encoding="utf-8"?>
<!-- Generator: Adobe Illustrator 27.7.0, SVG Export Plug-In . SVG Version: 6.00 Build 0)  -->
<svg version="1.1" id="Layer_1" xmlns="http://www.w3.org/2000/svg" xmlns:xlink="http://www.w3.org/1999/xlink" x="0px" y="0px"
	 viewBox="0 0 1024 768" style="enable-background:new 0 0 1024 768;" xml:space="preserve">
<style type="text/css">
	.st0{fill:#FFFFFF;}
	.st1{fill:#28EAEA;}
</style>
<g>
	<g>
		<path class="st0" d="M512.65,728.49l-91.17-155l-119.66-202.8c1.05,1.18-24.56-40.61-23.32-40.6
			c-1.25-0.01-27.85-45.25-28.68-47.21h97.06c12.94,0,24.09-2.06,33.41-6.22c9.32-4.14,16.83-9.58,22.53-16.32
			c5.69-6.73,9.97-14.5,12.82-23.31c2.84-8.8,4.27-17.87,4.27-27.2c0-18.65-5.83-34.83-17.48-48.56
			c-11.66-13.72-30.18-20.59-55.56-20.59H59.39L5,49h338.78c29.53,0,54.9,4.27,76.15,12.82c21.23,8.55,38.72,19.95,52.45,34.19
			c13.72,14.25,23.82,30.96,30.3,50.12c6.47,19.17,9.71,39.12,9.71,59.83c0,16.58-2.08,33.02-6.22,49.34
			c-4.15,16.32-10.62,31.6-19.43,45.84c-8.81,14.25-20.2,26.81-34.19,37.69c-13.99,10.88-31.08,19.17-51.28,24.86l111.37,191.29"/>
	</g>
	<g>
		<path class="st1" d="M156.07,283.04l93.76-0.48l52,88.13l-130.16-0.39c-12.94,0-24.09,2.06-33.41,6.22
			c-9.32,4.14-16.83,9.58-22.53,16.32c-5.69,6.73-9.97,14.5-12.82,23.31c-2.84,8.8-4.27,17.87-4.27,27.2
			c0,18.65,5.83,34.83,17.48,48.56c11.66,13.72,30.18,20.59,55.56,20.59l214.02,0.02l54.03,91.67H174.77
			c-29.53,0-54.9-4.27-76.15-12.82c-21.23-8.55-38.72-19.95-52.45-34.19c-13.72-14.25-23.82-30.96-30.3-50.12
			c-6.47-19.17-9.71-39.12-9.71-59.83c0-16.58,2.08-33.02,6.22-49.34c4.15-16.32,10.62-31.6,19.43-45.84
			c8.81-14.25,20.2-26.81,34.19-37.68c12.3-9.56,27.07-16.91,44.09-22.69C135.72,282.96,147.68,283.74,156.07,283.04"/>
	</g>
</g>
<g>
	<g>
		<path class="st1" d="M511.24,554.98l111.37-191.29c-20.2-5.69-37.3-13.99-51.28-24.86c-13.99-10.88-25.37-23.43-34.19-37.68
			c-8.8-14.24-15.27-29.53-19.43-45.84c-4.14-16.32-6.22-32.76-6.22-49.34c0-20.71,3.24-40.66,9.71-59.83
			c6.48-19.16,16.58-35.86,30.3-50.12c13.73-14.24,31.21-25.64,52.45-34.19C625.21,53.27,650.59,49,680.12,49h338.78l-54.39,91.69
			h-287.5c-25.37,0-43.9,6.87-55.56,20.59c-11.66,13.73-17.48,29.91-17.48,48.56c0,9.32,1.43,18.39,4.27,27.2
			c2.85,8.81,7.13,16.58,12.82,23.31c5.71,6.74,13.21,12.18,22.53,16.32c9.32,4.15,20.47,6.22,33.41,6.22h97.06
			c-1.25,1.95-21.32,36.75-22.14,36.76c0,0-31.33,52.22-29.86,51.04l0,0l-119.66,202.8l-91.17,155"/>
	</g>
	<g>
		<path class="st0" d="M867.83,283.04c8.38,0.7,20.35-0.08,45.98,8.62c17.03,5.78,31.8,13.12,44.09,22.69
			c13.99,10.88,25.37,23.43,34.19,37.68c8.8,14.24,15.27,29.53,19.43,45.84c4.14,16.32,6.22,32.76,6.22,49.34
			c0,20.71-3.24,40.66-9.71,59.83c-6.48,19.16-16.58,35.86-30.3,50.12c-13.73,14.24-31.21,25.64-52.45,34.19
			c-21.25,8.55-46.62,12.82-76.15,12.82H584.18l54.03-91.67l214.02-0.02c25.37,0,43.9-6.87,55.56-20.59
			c11.66-13.73,17.48-29.91,17.48-48.56c0-9.32-1.43-18.39-4.27-27.2c-2.85-8.81-7.13-16.58-12.82-23.31
			c-5.71-6.74-13.21-12.18-22.53-16.32c-9.32-4.15-20.47-6.22-33.41-6.22l-130.16,0.39l52-88.13L867.83,283.04"/>
	</g>
</g>
</svg>
